<?xml version="1.0" encoding="UTF-8" standalone="no"?>
<svg
   xmlns:dc="http://purl.org/dc/elements/1.1/"
   xmlns:cc="http://creativecommons.org/ns#"
   xmlns:rdf="http://www.w3.org/1999/02/22-rdf-syntax-ns#"
   xmlns:svg="http://www.w3.org/2000/svg"
   xmlns="http://www.w3.org/2000/svg"
   viewBox="0 0 1122.6667 793.33331"
   height="793.33331"
   width="1122.6667"
   xml:space="preserve"
   id="svg2"
   version="1.1"><metadata
     id="metadata8"><rdf:RDF><cc:Work
         rdf:about=""><dc:format>image/svg+xml</dc:format><dc:type
           rdf:resource="http://purl.org/dc/dcmitype/StillImage" /></cc:Work></rdf:RDF></metadata><defs
     id="defs6"><clipPath
       id="clipPath20"
       clipPathUnits="userSpaceOnUse"><path
         id="path18"
         d="M 0,595 V 0 h 842 v 595 z" /></clipPath><clipPath
       id="clipPath30"
       clipPathUnits="userSpaceOnUse"><path
         id="path28"
         d="M 0,595 V 0 h 842 v 595 z" /></clipPath><clipPath
       id="clipPath38"
       clipPathUnits="userSpaceOnUse"><path
         id="path36"
         d="M 0,595 V 0 h 842 v 595 z" /></clipPath><clipPath
       id="clipPath46"
       clipPathUnits="userSpaceOnUse"><path
         id="path44"
         d="M 0,595 V 0 h 842 v 595 z" /></clipPath><clipPath
       id="clipPath54"
       clipPathUnits="userSpaceOnUse"><path
         id="path52"
         d="M 0,595 V 0 h 842 v 595 z" /></clipPath><clipPath
       id="clipPath62"
       clipPathUnits="userSpaceOnUse"><path
         id="path60"
         d="M 0,595 V 0 h 842 v 595 z" /></clipPath><clipPath
       id="clipPath70"
       clipPathUnits="userSpaceOnUse"><path
         id="path68"
         d="M 0,595 V 0 h 842 v 595 z" /></clipPath><clipPath
       id="clipPath78"
       clipPathUnits="userSpaceOnUse"><path
         id="path76"
         d="M 0,595 V 0 h 842 v 595 z" /></clipPath><clipPath
       id="clipPath86"
       clipPathUnits="userSpaceOnUse"><path
         id="path84"
         d="M 0,595 V 0 h 842 v 595 z" /></clipPath><clipPath
       id="clipPath94"
       clipPathUnits="userSpaceOnUse"><path
         id="path92"
         d="M 0,595 V 0 h 842 v 595 z" /></clipPath><clipPath
       id="clipPath102"
       clipPathUnits="userSpaceOnUse"><path
         id="path100"
         d="M 0,595 V 0 h 842 v 595 z" /></clipPath><clipPath
       id="clipPath112"
       clipPathUnits="userSpaceOnUse"><path
         id="path110"
         d="M 0,595 V 0 h 842 v 595 z" /></clipPath><clipPath
       id="clipPath120"
       clipPathUnits="userSpaceOnUse"><path
         id="path118"
         d="M 0,595 V 0 h 842 v 595 z" /></clipPath><clipPath
       id="clipPath128"
       clipPathUnits="userSpaceOnUse"><path
         id="path126"
         d="M 0,595 V 0 h 842 v 595 z" /></clipPath><clipPath
       id="clipPath136"
       clipPathUnits="userSpaceOnUse"><path
         id="path134"
         d="M 0,595 V 0 h 842 v 595 z" /></clipPath><clipPath
       id="clipPath174"
       clipPathUnits="userSpaceOnUse"><path
         id="path172"
         d="M 0,595 V 0 h 842 v 595 z" /></clipPath><clipPath
       id="clipPath182"
       clipPathUnits="userSpaceOnUse"><path
         id="path180"
         d="M 0,595 V 0 h 842 v 595 z" /></clipPath><clipPath
       id="clipPath190"
       clipPathUnits="userSpaceOnUse"><path
         id="path188"
         d="M 0,595 V 0 h 842 v 595 z" /></clipPath><clipPath
       id="clipPath198"
       clipPathUnits="userSpaceOnUse"><path
         id="path196"
         d="M 0,595 V 0 h 842 v 595 z" /></clipPath><clipPath
       id="clipPath234"
       clipPathUnits="userSpaceOnUse"><path
         id="path232"
         d="M 0,595 V 0 h 842 v 595 z" /></clipPath><clipPath
       id="clipPath242"
       clipPathUnits="userSpaceOnUse"><path
         id="path240"
         d="M 0,595 V 0 h 842 v 595 z" /></clipPath><clipPath
       id="clipPath250"
       clipPathUnits="userSpaceOnUse"><path
         id="path248"
         d="M 0,595 V 0 h 842 v 595 z" /></clipPath><clipPath
       id="clipPath258"
       clipPathUnits="userSpaceOnUse"><path
         id="path256"
         d="M 0,595 V 0 h 842 v 595 z" /></clipPath></defs><g
     transform="matrix(1.3333333,0,0,-1.3333333,0,793.33333)"
     id="g10"><g
       id="g12" /><g
       id="g14"><g
         clip-path="url(#clipPath20)"
         id="g16"><g
           id="g22"><g
             id="g24"><g
               clip-path="url(#clipPath30)"
               id="g26"><g
                 id="g32"><g
                   clip-path="url(#clipPath38)"
                   id="g34" /></g></g></g><g
             id="g40"><g
               clip-path="url(#clipPath46)"
               id="g42"><g
                 id="g48"><g
                   clip-path="url(#clipPath54)"
                   id="g50" /></g></g></g><g
             id="g56"><g
               clip-path="url(#clipPath62)"
               id="g58"><g
                 id="g64"><g
                   clip-path="url(#clipPath70)"
                   id="g66" /></g></g></g><g
             id="g72"><g
               clip-path="url(#clipPath78)"
               id="g74"><g
                 id="g80"><g
                   clip-path="url(#clipPath86)"
                   id="g82" /></g></g></g><g
             id="g88"><g
               clip-path="url(#clipPath94)"
               id="g90"><g
                 id="g96"><g
                   clip-path="url(#clipPath102)"
                   id="g98"><path
                     id="path104"
                     style="fill:#ffffff;fill-opacity:1;fill-rule:nonzero;stroke:none"
                     d="M 0,595 H 842 V 179 H 0 Z" /></g></g></g></g><g
             id="g106"><g
               clip-path="url(#clipPath112)"
               id="g108"><g
                 id="g114"><g
                   clip-path="url(#clipPath120)"
                   id="g116" /></g></g></g><g
             id="g122"><g
               clip-path="url(#clipPath128)"
               id="g124"><g
                 id="g130"><g
                   clip-path="url(#clipPath136)"
                   id="g132"><path
                     id="path138"
                     style="fill:none;stroke:#848484;stroke-width:1.38;stroke-linecap:round;stroke-linejoin:miter;stroke-miterlimit:10;stroke-dasharray:none;stroke-opacity:1"
                     d="M 396.95,434.04 335.9,422.17" /><path
                     id="path140"
                     style="fill:none;stroke:#848484;stroke-width:1.38;stroke-linecap:round;stroke-linejoin:miter;stroke-miterlimit:10;stroke-dasharray:none;stroke-opacity:1"
                     d="m 288.61,371.61 36.12,43.91" /><path
                     id="path142"
                     style="fill:none;stroke:#848484;stroke-width:1.38;stroke-linecap:round;stroke-linejoin:miter;stroke-miterlimit:10;stroke-dasharray:none;stroke-opacity:1"
                     d="m 284.76,323.79 -0.45,35.58" /><path
                     id="path144"
                     style="fill:none;stroke:#848484;stroke-width:1.38;stroke-linecap:round;stroke-linejoin:miter;stroke-miterlimit:10;stroke-dasharray:none;stroke-opacity:1"
                     d="M 399.11,430.22 353.77,379.71" /><path
                     id="path146"
                     style="fill:none;stroke:#848484;stroke-width:2.75999999;stroke-linecap:round;stroke-linejoin:miter;stroke-miterlimit:10;stroke-dasharray:none;stroke-opacity:1"
                     d="M 273.51,307.67 187.8,277.39" /><path
                     id="path148"
                     style="fill:none;stroke:#848484;stroke-width:2.75999999;stroke-linecap:round;stroke-linejoin:miter;stroke-miterlimit:10;stroke-dasharray:none;stroke-opacity:1"
                     d="m 296.62,314.71 c 35.58,9.15 93.54,39.98 129.47,68.86" /><path
                     id="path150"
                     style="fill:none;stroke:#848484;stroke-width:1.38;stroke-linecap:round;stroke-linejoin:miter;stroke-miterlimit:10;stroke-dasharray:none;stroke-opacity:1"
                     d="m 291.03,301.28 15.94,-27.14" /><path
                     id="path152"
                     style="fill:none;stroke:#848484;stroke-width:2.75999999;stroke-linecap:round;stroke-linejoin:miter;stroke-miterlimit:10;stroke-dasharray:none;stroke-opacity:1"
                     d="M 548.09,515.39 C 528.39,470.54 482.7,417.56 446.06,397.05" /><path
                     id="path154"
                     style="fill:none;stroke:#848484;stroke-width:1.38;stroke-linecap:round;stroke-linejoin:miter;stroke-miterlimit:10;stroke-dasharray:none;stroke-opacity:1"
                     d="m 447.52,389.79 36.39,-4.09" /><path
                     id="path156"
                     style="fill:none;stroke:#848484;stroke-width:1.38;stroke-linecap:round;stroke-linejoin:miter;stroke-miterlimit:10;stroke-dasharray:none;stroke-opacity:1"
                     d="m 438.05,402.96 9.82,45.68" /><path
                     id="path158"
                     style="fill:none;stroke:#848484;stroke-width:1.38;stroke-linecap:round;stroke-linejoin:miter;stroke-miterlimit:10;stroke-dasharray:none;stroke-opacity:1"
                     d="m 493.55,391.25 54.54,124.14" /><path
                     id="path160"
                     style="fill:none;stroke:#848484;stroke-width:1.38;stroke-linecap:round;stroke-linejoin:miter;stroke-miterlimit:10;stroke-dasharray:none;stroke-opacity:1"
                     d="m 455.11,459.17 89.98,58.76" /><path
                     id="path162"
                     style="fill:none;stroke:#848484;stroke-width:1.38;stroke-linecap:round;stroke-linejoin:miter;stroke-miterlimit:10;stroke-dasharray:none;stroke-opacity:1"
                     d="M 463.72,341.41 383.8,263.34" /><path
                     id="path164"
                     style="fill:none;stroke:#848484;stroke-width:1.38;stroke-linecap:round;stroke-linejoin:miter;stroke-miterlimit:10;stroke-dasharray:none;stroke-opacity:1"
                     d="m 317.31,267.21 54.71,-7.73" /><path
                     id="path166"
                     style="fill:none;stroke:#848484;stroke-width:1.38;stroke-linecap:round;stroke-linejoin:miter;stroke-miterlimit:10;stroke-dasharray:none;stroke-opacity:1"
                     d="M 461.99,344.48 375.87,321.75" /></g></g></g></g><g
             id="g168"><g
               clip-path="url(#clipPath174)"
               id="g170"><g
                 id="g176"><g
                   clip-path="url(#clipPath182)"
                   id="g178" /></g></g></g><g
             id="g184"><g
               clip-path="url(#clipPath190)"
               id="g186"><g
                 id="g192"><g
                   clip-path="url(#clipPath198)"
                   id="g194"><path
                     id="path200"
                     style="fill:#00ff33;fill-opacity:1;fill-rule:nonzero;stroke:none"
                     d="m 336.03,420.85 c 0,-3.81 -3.09,-6.91 -6.91,-6.91 -3.81,0 -6.91,3.1 -6.91,6.91 0,3.82 3.1,6.91 6.91,6.91 3.82,0 6.91,-3.09 6.91,-6.91 z" /><path
                     id="path202"
                     style="fill:#00ff33;fill-opacity:1;fill-rule:nonzero;stroke:none"
                     d="m 291.13,366.28 c 0,-3.82 -3.1,-6.91 -6.91,-6.91 -3.82,0 -6.91,3.09 -6.91,6.91 0,3.81 3.09,6.9 6.91,6.9 3.81,0 6.91,-3.09 6.91,-6.9 z" /><path
                     id="path204"
                     style="fill:#00ff33;fill-opacity:1;fill-rule:nonzero;stroke:none"
                     d="m 410.64,435.36 c 0,-3.82 -3.1,-6.91 -6.91,-6.91 -3.82,0 -6.91,3.09 -6.91,6.91 0,3.81 3.09,6.91 6.91,6.91 3.81,0 6.91,-3.1 6.91,-6.91 z" /><path
                     id="path206"
                     style="fill:#3333ff;fill-opacity:1;fill-rule:nonzero;stroke:none"
                     d="m 297,311.7 c 0,-6.68 -5.41,-12.09 -12.09,-12.09 -6.68,0 -12.09,5.41 -12.09,12.09 0,6.68 5.41,12.09 12.09,12.09 6.68,0 12.09,-5.41 12.09,-12.09 z" /><path
                     id="path208"
                     style="fill:#ffcc66;fill-opacity:1;fill-rule:nonzero;stroke:none"
                     d="m 447.6,391.15 c 0,-6.68 -5.42,-12.09 -12.09,-12.09 -6.68,0 -12.09,5.41 -12.09,12.09 0,6.67 5.41,12.08 12.09,12.08 6.67,0 12.09,-5.41 12.09,-12.08 z" /><path
                     id="path210"
                     style="fill:#3333ff;fill-opacity:1;fill-rule:nonzero;stroke:none"
                     d="m 188.19,275.09 c 0,-3.82 -3.09,-6.91 -6.9,-6.91 -3.82,0 -6.91,3.09 -6.91,6.91 0,3.81 3.09,6.91 6.91,6.91 3.81,0 6.9,-3.1 6.9,-6.91 z" /><path
                     id="path212"
                     style="fill:#ffcc66;fill-opacity:1;fill-rule:nonzero;stroke:none"
                     d="m 497.68,384.93 c 0,-3.82 -3.09,-6.91 -6.91,-6.91 -3.81,0 -6.91,3.09 -6.91,6.91 0,3.81 3.1,6.91 6.91,6.91 3.82,0 6.91,-3.1 6.91,-6.91 z" /><path
                     id="path214"
                     style="fill:#ffcc66;fill-opacity:1;fill-rule:nonzero;stroke:none"
                     d="m 456.23,455.39 c 0,-3.81 -3.09,-6.91 -6.91,-6.91 -3.81,0 -6.9,3.1 -6.9,6.91 0,3.82 3.09,6.91 6.9,6.91 3.82,0 6.91,-3.09 6.91,-6.91 z" /><path
                     id="path216"
                     style="fill:#00ff33;fill-opacity:1;fill-rule:nonzero;stroke:none"
                     d="m 356.06,374.57 c 0,-3.82 -3.09,-6.91 -6.91,-6.91 -3.81,0 -6.9,3.09 -6.9,6.91 0,3.81 3.09,6.9 6.9,6.9 3.82,0 6.91,-3.09 6.91,-6.9 z" /><path
                     id="path218"
                     style="fill:#ffcc66;fill-opacity:1;fill-rule:nonzero;stroke:none"
                     d="m 557.78,521.71 c 0,-3.82 -3.09,-6.91 -6.91,-6.91 -3.81,0 -6.9,3.09 -6.9,6.91 0,3.82 3.09,6.91 6.9,6.91 3.82,0 6.91,-3.09 6.91,-6.91 z" /><path
                     id="path220"
                     style="fill:#ff3333;fill-opacity:1;fill-rule:nonzero;stroke:none"
                     d="m 385.77,258.51 c 0,-3.82 -3.09,-6.91 -6.91,-6.91 -3.82,0 -6.91,3.09 -6.91,6.91 0,3.81 3.09,6.91 6.91,6.91 3.82,0 6.91,-3.1 6.91,-6.91 z" /><path
                     id="path222"
                     style="fill:#ff3333;fill-opacity:1;fill-rule:nonzero;stroke:none"
                     d="m 376.1,319.99 c 0,-3.81 -3.1,-6.91 -6.91,-6.91 -3.82,0 -6.91,3.1 -6.91,6.91 0,3.82 3.09,6.91 6.91,6.91 3.81,0 6.91,-3.09 6.91,-6.91 z" /><path
                     id="path224"
                     style="fill:#ff3333;fill-opacity:1;fill-rule:nonzero;stroke:none"
                     d="m 317.38,268.18 c 0,-3.82 -3.1,-6.91 -6.91,-6.91 -3.82,0 -6.91,3.09 -6.91,6.91 0,3.82 3.09,6.91 6.91,6.91 3.81,0 6.91,-3.09 6.91,-6.91 z" /><path
                     id="path226"
                     style="fill:#ff3333;fill-opacity:1;fill-rule:nonzero;stroke:none"
                     d="m 475.57,346.24 c 0,-3.81 -3.09,-6.91 -6.9,-6.91 -3.82,0 -6.91,3.1 -6.91,6.91 0,3.82 3.09,6.91 6.91,6.91 3.81,0 6.9,-3.09 6.9,-6.91 z" /></g></g></g></g><g
             id="g228"><g
               clip-path="url(#clipPath234)"
               id="g230"><g
                 id="g236"><g
                   clip-path="url(#clipPath242)"
                   id="g238" /></g></g></g><g
             id="g244"><g
               clip-path="url(#clipPath250)"
               id="g246"><g
                 id="g252"><g
                   clip-path="url(#clipPath258)"
                   id="g254" /></g></g></g></g></g></g></g></svg>